<?xml version="1.0" encoding="utf-8"?>

<svg version="1.1" id="Layer_1" xmlns="http://www.w3.org/2000/svg" xmlns:xlink="http://www.w3.org/1999/xlink" x="0px" y="0px"
	 viewBox="0 0 344.6 65.1" style="enable-background:new 0 0 344.6 65.1;" xml:space="preserve">
<style type="text/css">
	.st0{enable-background:new    ;}
	.st1{fill:none;stroke:#FFFFFF;stroke-miterlimit:10;}
</style>
<g class="st0">
	<path class="st1" d="M39.1,25.5c2.7,1.7,4.9,3.9,6.4,6.8c1.5,2.9,2.3,6,2.3,9.6c0,1,0,1.8-0.1,2.3H16.9c0.2,3.8,1.5,7.1,3.8,9.8
		c2.3,2.7,5.4,4.1,9.4,4.1c3.2,0,5.9-0.6,8-1.8c2.1-1.2,3.8-2.9,5.1-5l4.3,2.9c-1.8,2.8-4.1,4.9-7,6.5c-2.9,1.6-6.3,2.4-10.2,2.4
		c-3.6,0-6.9-0.9-9.7-2.6c-2.8-1.7-5-4.1-6.6-7.1s-2.4-6.5-2.4-10.3s0.8-7.3,2.4-10.3c1.6-3,3.8-5.4,6.6-7.1c2.8-1.7,6-2.6,9.6-2.6
		C33.3,23,36.3,23.9,39.1,25.5z M42.3,39.7c-0.5-3.9-1.8-6.8-3.9-8.8C36.3,29,33.5,28,29.9,28c-3.5,0-6.3,1.1-8.5,3.3
		c-2.2,2.2-3.6,5-4.2,8.4H42.3z"/>
	<path class="st1" d="M82.8,23.6v5c-1.1-0.5-2.3-0.8-3.7-0.8c-2.3,0-4.4,0.6-6.4,1.9c-2,1.3-3.6,3.1-4.8,5.6
		c-1.2,2.4-1.8,5.3-1.8,8.6v17.9h-5.4V24.3h5.4v7.5c1.4-2.8,3.3-4.9,5.5-6.5c2.2-1.5,4.7-2.3,7.5-2.3C80.4,23,81.6,23.2,82.8,23.6z"
		/>
	<path class="st1" d="M118.4,24.3v5L97,56.8h21.4v5H90.7v-5l21.4-27.5H90.7v-5H118.4z"/>
	<path class="st1" d="M156.4,24.6c2.2,1.1,4,2.6,5.3,4.7c1.3,2.1,2,4.5,2,7.4v25h-5.4V39.1c0-7.4-3.3-11.1-9.9-11.1
		c-3.8,0-6.7,1.4-8.6,4.1c-1.9,2.7-2.9,6.4-2.9,11v18.7h-5.4V3.7h5.4v26.9c1.3-2.4,3-4.3,5.1-5.6c2.1-1.3,4.5-2,7.3-2
		C151.8,23,154.2,23.6,156.4,24.6z"/>
	<path class="st1" d="M179.1,61.1c-0.8-0.9-1.2-1.9-1.2-3.1c0-1.2,0.4-2.2,1.2-3c0.8-0.9,1.8-1.3,3-1.3c1.2,0,2.3,0.4,3.1,1.3
		c0.9,0.9,1.3,1.9,1.3,3.1c0,1.2-0.4,2.2-1.3,3c-0.9,0.9-1.9,1.3-3.1,1.3C180.9,62.4,179.9,62,179.1,61.1z"/>
	<path class="st1" d="M202.8,15.8c-0.8-0.9-1.2-1.9-1.2-3.1c0-1.2,0.4-2.2,1.2-3c0.8-0.8,1.9-1.2,3.1-1.2c1.2,0,2.2,0.4,3,1.2
		c0.9,0.8,1.3,1.9,1.3,3.1c0,1.2-0.4,2.2-1.3,3c-0.9,0.9-1.9,1.3-3,1.3C204.7,17,203.7,16.6,202.8,15.8z M203.2,61.8V24.3h5.4v37.4
		H203.2z"/>
	<path class="st1" d="M251.7,24.6c2.2,1.1,4,2.6,5.3,4.7c1.3,2.1,2,4.5,2,7.4v25h-5.4V39.1c0-7.4-3.3-11.1-9.9-11.1
		c-3.8,0-6.7,1.4-8.6,4.1c-1.9,2.7-2.9,6.4-2.9,11v18.7h-5.4V24.3h5.4v6.2c1.3-2.4,3-4.3,5.1-5.6c2.1-1.3,4.5-2,7.3-2
		C247.1,23,249.5,23.6,251.7,24.6z"/>
	<path class="st1" d="M283.8,9.2c-1.2,1.3-1.8,2.9-1.8,5v10.2h8.6v5H282v32.5h-5.4V29.3h-4.8v-5h4.8V14.2c0-3.5,1.1-6.3,3.3-8.5
		c2.2-2.2,5.1-3.3,8.5-3.3h2.2v5h-2.2C286.5,7.3,285,7.9,283.8,9.2z"/>
	<path class="st1" d="M308.2,60.5c-2.8-1.7-5-4.1-6.6-7.2c-1.6-3.1-2.4-6.5-2.4-10.4s0.8-7.3,2.4-10.3c1.6-3,3.8-5.4,6.6-7.1
		c2.8-1.7,6-2.6,9.6-2.6c3.6,0,6.8,0.9,9.6,2.6c2.8,1.7,5,4.1,6.6,7.1c1.6,3,2.4,6.5,2.4,10.3s-0.8,7.3-2.4,10.3
		c-1.6,3-3.8,5.4-6.6,7.1s-6,2.6-9.6,2.6C314.3,63,311.1,62.2,308.2,60.5z M324.5,56.2c2-1.3,3.6-3.1,4.7-5.4
		c1.1-2.3,1.7-4.9,1.7-7.8s-0.6-5.5-1.7-7.8c-1.1-2.3-2.7-4.1-4.7-5.4s-4.3-1.9-6.8-1.9c-2.5,0-4.7,0.6-6.7,1.9
		c-2,1.3-3.5,3.1-4.6,5.3s-1.7,4.8-1.7,7.7c0,2.9,0.6,5.5,1.7,7.8c1.1,2.3,2.7,4.1,4.6,5.4c2,1.3,4.2,1.9,6.7,1.9
		C320.2,58.1,322.5,57.4,324.5,56.2z"/>
</g>
<g class="st0">
	<path class="st1" d="M30.3,25.5c2.7,1.7,4.9,3.9,6.4,6.8c1.5,2.9,2.3,6,2.3,9.6c0,1,0,1.8-0.1,2.3H8.2c0.2,3.8,1.5,7.1,3.8,9.8
		c2.3,2.7,5.4,4.1,9.4,4.1c3.2,0,5.9-0.6,8-1.8c2.1-1.2,3.8-2.9,5.1-5l4.3,2.9c-1.8,2.8-4.1,4.9-7,6.5c-2.9,1.6-6.3,2.4-10.2,2.4
		c-3.6,0-6.9-0.9-9.7-2.6c-2.8-1.7-5-4.1-6.6-7.1S2.7,46.9,2.7,43s0.8-7.3,2.4-10.3c1.6-3,3.8-5.4,6.6-7.1c2.8-1.7,6-2.6,9.6-2.6
		C24.6,23,27.6,23.9,30.3,25.5z M33.6,39.7c-0.5-3.9-1.8-6.8-3.9-8.8C27.6,29,24.8,28,21.2,28c-3.5,0-6.3,1.1-8.5,3.3
		c-2.2,2.2-3.6,5-4.2,8.4H33.6z"/>
	<path class="st1" d="M74.1,23.6v5c-1.1-0.5-2.3-0.8-3.7-0.8c-2.3,0-4.4,0.6-6.4,1.9c-2,1.3-3.6,3.1-4.8,5.6
		c-1.2,2.4-1.8,5.3-1.8,8.6v17.9H52V24.3h5.4v7.5c1.4-2.8,3.3-4.9,5.5-6.5c2.2-1.5,4.7-2.3,7.5-2.3C71.7,23,72.9,23.2,74.1,23.6z"/>
	<path class="st1" d="M109.7,24.3v5L88.2,56.8h21.4v5H82v-5l21.4-27.5H82v-5H109.7z"/>
	<path class="st1" d="M147.7,24.6c2.2,1.1,4,2.6,5.3,4.7c1.3,2.1,2,4.5,2,7.4v25h-5.4V39.1c0-7.4-3.3-11.1-9.9-11.1
		c-3.8,0-6.7,1.4-8.6,4.1c-1.9,2.7-2.9,6.4-2.9,11v18.7h-5.4V3.7h5.4v26.9c1.3-2.4,3-4.3,5.1-5.6c2.1-1.3,4.5-2,7.3-2
		C143.1,23,145.5,23.6,147.7,24.6z"/>
	<path class="st1" d="M170.4,61.1c-0.8-0.9-1.2-1.9-1.2-3.1c0-1.2,0.4-2.2,1.2-3c0.8-0.9,1.8-1.3,3-1.3c1.2,0,2.3,0.4,3.1,1.3
		c0.9,0.9,1.3,1.9,1.3,3.1c0,1.2-0.4,2.2-1.3,3c-0.9,0.9-1.9,1.3-3.1,1.3C172.2,62.4,171.2,62,170.4,61.1z"/>
	<path class="st1" d="M194.1,15.8c-0.8-0.9-1.2-1.9-1.2-3.1c0-1.2,0.4-2.2,1.2-3c0.8-0.8,1.9-1.2,3.1-1.2c1.2,0,2.2,0.4,3,1.2
		c0.9,0.8,1.3,1.9,1.3,3.1c0,1.2-0.4,2.2-1.3,3c-0.9,0.9-1.9,1.3-3,1.3C196,17,194.9,16.6,194.1,15.8z M194.5,61.8V24.3h5.4v37.4
		H194.5z"/>
	<path class="st1" d="M243,24.6c2.2,1.1,4,2.6,5.3,4.7c1.3,2.1,2,4.5,2,7.4v25h-5.4V39.1c0-7.4-3.3-11.1-9.9-11.1
		c-3.8,0-6.7,1.4-8.6,4.1c-1.9,2.7-2.9,6.4-2.9,11v18.7h-5.4V24.3h5.4v6.2c1.3-2.4,3-4.3,5.1-5.6c2.1-1.3,4.5-2,7.3-2
		C238.4,23,240.8,23.6,243,24.6z"/>
	<path class="st1" d="M275.1,9.2c-1.2,1.3-1.8,2.9-1.8,5v10.2h8.6v5h-8.6v32.5h-5.4V29.3H263v-5h4.8V14.2c0-3.5,1.1-6.3,3.3-8.5
		c2.2-2.2,5.1-3.3,8.5-3.3h2.2v5h-2.2C277.8,7.3,276.3,7.9,275.1,9.2z"/>
	<path class="st1" d="M299.5,60.5c-2.8-1.7-5-4.1-6.6-7.2c-1.6-3.1-2.4-6.5-2.4-10.4s0.8-7.3,2.4-10.3c1.6-3,3.8-5.4,6.6-7.1
		c2.8-1.7,6-2.6,9.6-2.6c3.6,0,6.8,0.9,9.6,2.6c2.8,1.7,5,4.1,6.6,7.1c1.6,3,2.4,6.5,2.4,10.3s-0.8,7.3-2.4,10.3
		c-1.6,3-3.8,5.4-6.6,7.1s-6,2.6-9.6,2.6C305.5,63,302.3,62.2,299.5,60.5z M315.8,56.2c2-1.3,3.6-3.1,4.7-5.4
		c1.1-2.3,1.7-4.9,1.7-7.8s-0.6-5.5-1.7-7.8c-1.1-2.3-2.7-4.1-4.7-5.4S311.5,28,309,28c-2.5,0-4.7,0.6-6.7,1.9
		c-2,1.3-3.5,3.1-4.6,5.3c-1.1,2.3-1.7,4.8-1.7,7.7c0,2.9,0.6,5.5,1.7,7.8c1.1,2.3,2.7,4.1,4.6,5.4c2,1.3,4.2,1.9,6.7,1.9
		C311.5,58.1,313.8,57.4,315.8,56.2z"/>
</g>
</svg>
